<?xml version="1.0" standalone="no"?>
<!DOCTYPE svg PUBLIC "-//W3C//DTD SVG 20010904//EN"
 "http://www.w3.org/TR/2001/REC-SVG-20010904/DTD/svg10.dtd">
<svg version="1.0" xmlns="http://www.w3.org/2000/svg"
 width="59.000000pt" height="61.000000pt" viewBox="0 0 59.000000 61.000000"
 preserveAspectRatio="xMidYMid meet">

<g transform="translate(0.000000,61.000000) scale(0.100000,-0.100000)"
fill="#000000" stroke="none">
<path d="M206 584 c-68 -22 -147 -101 -172 -174 -25 -74 -24 -171 3 -231 102
-229 410 -226 515 6 27 61 30 180 5 235 -63 142 -208 210 -351 164z m208 -160
c10 -26 7 -34 -12 -34 -9 0 -22 10 -27 22 -20 44 -35 33 -35 -26 0 -54 1 -56
33 -70 71 -29 70 -133 0 -166 -18 -8 -33 -23 -33 -32 0 -10 -4 -18 -10 -18 -5
0 -10 9 -10 20 0 13 -7 20 -20 20 -27 0 -70 43 -70 70 0 31 32 25 52 -10 26
-46 38 -37 38 30 0 54 -3 61 -22 69 -80 31 -85 143 -8 169 16 6 30 16 30 21 0
14 86 -45 94 -65z"/>
<path d="M285 416 c-18 -27 -6 -76 20 -76 11 0 15 12 15 50 0 55 -11 63 -35
26z"/>
<path d="M340 225 c0 -52 1 -55 20 -45 39 21 37 90 -4 98 -13 3 -16 -6 -16
-53z"/>
</g>
</svg>
